<svg viewBox="0 -17 512 512" xmlns="http://www.w3.org/2000/svg"><path d="m460.175781 295.886719h-408.167969c-14.023437 0-25.390624 11.367187-25.390624 25.390625v22.242187c0 5.519531 4.476562 9.992188 9.996093 9.992188h438.957031c5.519532 0 9.996094-4.472657 9.996094-9.992188v-22.242187c0-14.019532-11.367187-25.390625-25.390625-25.390625zm0 0" fill="#912c2c"/><path d="m460.175781 295.886719h-34.203125v57.625h49.597656c5.519532 0 9.996094-4.476563 9.996094-9.996094v-22.238281c0-14.023438-11.367187-25.390625-25.390625-25.390625zm0 0" fill="#7c1e1e"/><path d="m477.253906 265.558594c13.21875 0 24.359375 10.980468 24.371094 24.761718.011719 19.683594-22.425781 30.097657-48.492188 26.28125-24.347656-3.5625-24.65625-14.761718-49.308593-14.761718-24.65625 0-24.65625 14.761718-49.308594 14.761718-24.65625 0-24.65625-14.761718-49.308594-14.761718-24.652343 0-24.652343 14.761718-49.308593 14.761718-24.652344 0-24.652344-14.761718-49.308594-14.761718-24.652344 0-24.652344 14.761718-49.304688 14.761718-24.65625 0-24.65625-14.761718-49.3125-14.761718-24.652344 0-24.960937 11.199218-49.308594 14.761718-26.066406 3.816407-48.503906-6.597656-48.488281-26.28125.007813-13.78125 11.152344-24.761718 24.371094-24.761718zm0 0" fill="#a0e557"/><path d="m501.625 290.320312c-.011719-13.78125-11.152344-24.761718-24.371094-24.761718h-37v47.859375c3.5 1.292969 7.628906 2.417969 12.878906 3.183593 26.066407 3.816407 48.503907-6.597656 48.492188-26.28125zm0 0" fill="#93cc4a"/><path d="m491.214844 348.394531h-470.429688c-11.476562 0-20.785156 9.304688-20.785156 20.785157 0 59.683593 48.382812 108.0625 108.0625 108.0625h295.875c59.679688 0 108.0625-48.378907 108.0625-108.058594 0-11.484375-9.308594-20.789063-20.785156-20.789063zm0 0" fill="#efa335"/><path d="m491.214844 348.394531h-38.699219v41.574219c0 48.203125-39.074219 87.277344-87.277344 87.277344h38.699219c59.679688-.003906 108.0625-48.382813 108.0625-108.0625 0-11.484375-9.308594-20.789063-20.785156-20.789063zm0 0" fill="#fd8f31"/><path d="m460.085938 239.097656h-408.171876c-14.019531 0-25.386718-11.367187-25.386718-25.386718v-22.242188c0-5.519531 4.472656-9.996094 9.992187-9.996094h438.960938c5.519531 0 9.992187 4.476563 9.992187 9.996094v22.242188c0 14.019531-11.367187 25.386718-25.386718 25.386718zm0 0" fill="#fc4e51"/><path d="m475.480469 181.476562h-49.414063v42.226563c0 8.503906-6.890625 15.394531-15.394531 15.394531h49.414063c14.019531 0 25.386718-11.367187 25.386718-25.386718v-22.242188c0-5.519531-4.472656-9.992188-9.992187-9.992188zm0 0" fill="#ea3942"/><path d="m481.523438 234.273438h-450.570313c-10.214844 0-18.894531 8.359374-18.703125 18.574218.1875 9.910156 8.273438 17.882813 18.226562 17.882813h286.277344c4.652344 0 9.148438 1.660156 12.679688 4.6875l40.628906 34.8125c11.867188 10.167969 29.585938 9.40625 40.535156-1.742188l31.371094-31.929687c3.664062-3.730469 8.671875-5.828125 13.898438-5.828125h25.179687c10.21875 0 18.894531-8.363281 18.703125-18.578125-.1875-9.90625-8.273438-17.878906-18.226562-17.878906zm0 0" fill="#fccf3f"/><path d="m256 0c-238.351562.0898438-256 157.324219-256 179.589844 0 11.480468 9.308594 20.789062 20.785156 20.789062h470.429688c11.476562 0 20.785156-9.308594 20.785156-20.789062 0-22.265625-17.648438-179.5000002-256-179.589844zm0 0" fill="#efa335"/><path d="m511.996094 179c0-.066406-.003906-.136719-.003906-.203125-.003907-.148437-.003907-.300781-.007813-.457031-.003906-.074219-.003906-.152344-.007813-.226563-.003906-.164062-.007812-.328125-.015624-.5-.003907-.078125-.007813-.15625-.007813-.234375-.007813-.183594-.015625-.375-.027344-.570312 0-.070313-.003906-.136719-.007812-.207032-.011719-.230468-.023438-.464843-.039063-.707031 0-.039062-.003906-.082031-.007812-.121093-.089844-1.507813-.230469-3.257813-.445313-5.21875 0-.003907 0-.007813 0-.007813-4.371093-40.171875-38.457031-170.4648438-255.425781-170.546875-10.324219.00390625-20.226562.308594-29.742188.878906 144.398438 8.648438 197.1875 79.765625 216.082032 130.3125 7.949218 21.269532-7.953125 43.90625-30.65625 43.90625h-390.898438c-8.558594 0-15.90625-5.175781-19.09375-12.570312-1.328125 7.890625-1.691406 13.867187-1.691406 17.0625 0 11.480468 9.308594 20.789062 20.785156 20.789062h470.429688c11.476562 0 20.785156-9.308594 20.785156-20.789062 0-.1875-.003906-.382813-.003906-.589844zm0 0" fill="#fd8f31"/><path d="m481.523438 234.273438h-41.269532v44.03125l1.710938-1.746094c3.664062-3.730469 8.675781-5.828125 13.902344-5.828125h25.179687c10.214844 0 18.894531-8.363281 18.703125-18.578125-.1875-9.90625-8.273438-17.878906-18.226562-17.878906zm0 0" fill="#efc03c"/></svg>