<?xml version="1.0" encoding="iso-8859-1"?>
<!-- Generator: Adobe Illustrator 19.0.0, SVG Export Plug-In . SVG Version: 6.00 Build 0)  -->
<svg version="1.1" id="Capa_1" xmlns="http://www.w3.org/2000/svg" xmlns:xlink="http://www.w3.org/1999/xlink" x="0px" y="0px"
	 viewBox="0 0 463 463" style="enable-background:new 0 0 463 463;" xml:space="preserve">
<g>
	<path d="M442.788,274.1c2.664-4.234,4.212-9.238,4.212-14.6c0-15.163-12.336-27.5-27.5-27.5H415v-17h8.5
		c8.547,0,15.5-7.505,15.5-16.73v-13.089c0-15.119-4.603-29.675-13.31-42.093C405.511,114.308,355.44,80,231.5,80
		S57.489,114.308,37.31,143.088h0C28.603,155.506,24,170.062,24,185.181v13.089c0,9.226,6.953,16.73,15.5,16.73H48v17h-4.5
		C28.336,232,16,244.337,16,259.5c0,5.361,1.548,10.365,4.212,14.6C8.404,278.649,0,290.108,0,303.5C0,320.869,14.131,335,31.5,335
		H32v16.5c0,17.369,14.131,31.5,31.5,31.5h336c17.369,0,31.5-14.131,31.5-31.5V335h0.5c17.369,0,31.5-14.131,31.5-31.5
		C463,290.108,454.596,278.649,442.788,274.1z M432,259.5c0,6.893-5.607,12.5-12.5,12.5h-25.893l25-25h0.893
		C426.393,247,432,252.607,432,259.5z M345.607,272l25-25h26.786l-25,25H345.607z M297.607,272l25-25h26.786l-25,25H297.607z
		 M201.607,272l25-25h26.786l-25,25H201.607z M153.607,272l25-25h26.786l-25,25H153.607z M57.607,272l25-25h26.786l-25,25H57.607z
		 M130.607,247h26.786l-25,25h-26.786L130.607,247z M274.607,247h26.786l-25,25h-26.786L274.607,247z M39,198.27v-13.089
		c0-12.022,3.663-23.6,10.591-33.481c0,0,0,0,0,0c10.872-15.506,28.661-28.149,52.874-37.581C135.035,101.433,178.449,95,231.5,95
		s96.465,6.433,129.034,19.118c24.213,9.432,42.002,22.075,52.875,37.581c6.929,9.882,10.591,21.459,10.591,33.481v13.089
		c0,0.971-0.42,1.565-0.625,1.73H39.625C39.42,199.835,39,199.24,39,198.27z M63,215h337v17H63V215z M43.5,247h17.893
		l-23.605,23.605C33.763,268.527,31,264.334,31,259.5C31,252.607,36.607,247,43.5,247z M416,351.5c0,9.098-7.402,16.5-16.5,16.5
		h-336c-9.098,0-16.5-7.402-16.5-16.5V335h369V351.5z M431.5,320h-56c-9.098,0-16.5-7.402-16.5-16.5c0-4.143-3.358-7.5-7.5-7.5
		s-7.5,3.357-7.5,7.5c0,6.046,1.716,11.698,4.681,16.5H31.5c-9.098,0-16.5-7.401-16.5-16.5S22.402,287,31.5,287h12h73.181
		c-2.965,4.802-4.681,10.454-4.681,16.5c0,4.143,3.358,7.5,7.5,7.5s7.5-3.357,7.5-7.5c0-9.098,7.402-16.5,16.5-16.5h133.181
		c-2.965,4.802-4.681,10.454-4.681,16.5c0,4.143,3.358,7.5,7.5,7.5s7.5-3.357,7.5-7.5c0-9.098,7.402-16.5,16.5-16.5h116h12
		c9.098,0,16.5,7.401,16.5,16.5S440.598,320,431.5,320z"/>
	<path d="M239.5,151c1.97,0,3.91-0.8,5.3-2.2c1.4-1.39,2.2-3.33,2.2-5.3c0-1.971-0.8-3.91-2.2-5.3c-1.39-1.4-3.33-2.2-5.3-2.2
		c-1.97,0-3.91,0.8-5.3,2.2c-1.4,1.39-2.2,3.329-2.2,5.3c0,1.97,0.8,3.91,2.2,5.3C235.59,150.2,237.53,151,239.5,151z"/>
	<path d="M263.5,175c1.97,0,3.9-0.8,5.3-2.2c1.4-1.39,2.2-3.33,2.2-5.3c0-1.971-0.8-3.91-2.2-5.3c-1.39-1.4-3.33-2.2-5.3-2.2
		c-1.97,0-3.91,0.8-5.3,2.2c-1.4,1.39-2.2,3.319-2.2,5.3c0,1.97,0.8,3.91,2.2,5.3C259.59,174.2,261.53,175,263.5,175z"/>
	<path d="M287.5,135c1.97,0,3.9-0.8,5.3-2.2c1.4-1.39,2.2-3.32,2.2-5.3c0-1.971-0.8-3.91-2.2-5.3c-1.39-1.4-3.33-2.2-5.3-2.2
		c-1.97,0-3.91,0.8-5.3,2.2c-1.4,1.39-2.2,3.319-2.2,5.3c0,1.979,0.8,3.91,2.2,5.3C283.6,134.2,285.53,135,287.5,135z"/>
	<path d="M119.5,183c1.97,0,3.91-0.8,5.3-2.2c1.4-1.39,2.2-3.33,2.2-5.3c0-1.971-0.8-3.91-2.2-5.3c-1.39-1.4-3.33-2.2-5.3-2.2
		c-1.97,0-3.91,0.8-5.3,2.2c-1.4,1.39-2.2,3.319-2.2,5.3c0,1.979,0.8,3.91,2.2,5.3C115.59,182.2,117.53,183,119.5,183z"/>
	<path d="M183.5,127c1.97,0,3.91-0.8,5.3-2.2c1.4-1.39,2.2-3.32,2.2-5.3c0-1.971-0.8-3.91-2.2-5.3c-1.39-1.4-3.33-2.2-5.3-2.2
		c-1.97,0-3.91,0.8-5.3,2.2c-1.4,1.39-2.2,3.319-2.2,5.3c0,1.979,0.8,3.91,2.2,5.3C179.59,126.2,181.52,127,183.5,127z"/>
	<path d="M167.5,159c1.97,0,3.91-0.8,5.3-2.2c1.4-1.39,2.2-3.32,2.2-5.3c0-1.98-0.8-3.91-2.2-5.3c-1.39-1.4-3.33-2.2-5.3-2.2
		c-1.97,0-3.91,0.8-5.3,2.2c-1.4,1.39-2.2,3.329-2.2,5.3c0,1.97,0.8,3.91,2.2,5.3C163.59,158.2,165.53,159,167.5,159z"/>
	<path d="M103.5,159c1.98,0,3.91-0.8,5.3-2.2c1.4-1.39,2.2-3.33,2.2-5.3c0-1.971-0.8-3.91-2.2-5.3c-1.39-1.4-3.33-2.2-5.3-2.2
		c-1.97,0-3.91,0.8-5.3,2.2c-1.4,1.39-2.2,3.319-2.2,5.3c0,1.979,0.8,3.91,2.2,5.3C99.59,158.2,101.52,159,103.5,159z"/>
	<path d="M327.5,175c1.97,0,3.91-0.8,5.3-2.2c1.4-1.39,2.2-3.33,2.2-5.3c0-1.98-0.8-3.91-2.2-5.3c-1.39-1.4-3.32-2.2-5.3-2.2
		c-1.97,0-3.91,0.8-5.3,2.2c-1.4,1.39-2.2,3.329-2.2,5.3c0,1.97,0.8,3.91,2.2,5.3C323.59,174.2,325.53,175,327.5,175z"/>
	<path d="M359.5,159c1.97,0,3.91-0.8,5.3-2.2c1.4-1.39,2.2-3.33,2.2-5.3c0-1.971-0.8-3.91-2.2-5.3c-1.39-1.4-3.33-2.2-5.3-2.2
		c-1.97,0-3.91,0.8-5.3,2.2c-1.4,1.39-2.2,3.319-2.2,5.3c0,1.979,0.8,3.91,2.2,5.3C355.59,158.2,357.52,159,359.5,159z"/>
</g>
<g>
</g>
<g>
</g>
<g>
</g>
<g>
</g>
<g>
</g>
<g>
</g>
<g>
</g>
<g>
</g>
<g>
</g>
<g>
</g>
<g>
</g>
<g>
</g>
<g>
</g>
<g>
</g>
<g>
</g>
</svg>
