<?xml version="1.0" encoding="iso-8859-1"?>
<!-- Generator: Adobe Illustrator 19.0.0, SVG Export Plug-In . SVG Version: 6.00 Build 0)  -->
<svg version="1.1" id="Capa_1" xmlns="http://www.w3.org/2000/svg" xmlns:xlink="http://www.w3.org/1999/xlink" x="0px" y="0px"
	 viewBox="0 0 463 463" style="enable-background:new 0 0 463 463;" xml:space="preserve">
<g>
	<path d="M244.803,188.804l8-8c2.929-2.93,2.929-7.678,0-10.607c-2.929-2.928-7.678-2.928-10.606,0l-8,8
		c-2.929,2.93-2.929,7.678,0,10.607c1.464,1.464,3.384,2.196,5.303,2.196S243.339,190.268,244.803,188.804z"/>
	<path d="M114.197,242.196l-8,8c-2.929,2.93-2.929,7.678,0,10.607c1.464,1.464,3.384,2.196,5.303,2.196s3.839-0.732,5.303-2.196l8-8
		c2.929-2.93,2.929-7.678,0-10.607C121.875,239.269,117.125,239.269,114.197,242.196z"/>
	<path d="M266.197,314.196l-8,8c-2.929,2.93-2.929,7.678,0,10.607c1.464,1.464,3.384,2.196,5.303,2.196s3.839-0.732,5.303-2.196l8-8
		c2.929-2.93,2.929-7.678,0-10.607C273.875,311.269,269.125,311.269,266.197,314.196z"/>
	<path d="M124.803,178.196c-2.929-2.928-7.678-2.928-10.606,0c-2.929,2.93-2.929,7.678,0,10.607l8,8
		c1.464,1.464,3.384,2.196,5.303,2.196s3.839-0.732,5.303-2.196c2.929-2.93,2.929-7.678,0-10.607L124.803,178.196z"/>
	<path d="M287.5,143h8c4.142,0,7.5-3.357,7.5-7.5s-3.358-7.5-7.5-7.5h-8c-4.142,0-7.5,3.357-7.5,7.5S283.358,143,287.5,143z"/>
	<path d="M311.5,312h-8c-4.142,0-7.5,3.357-7.5,7.5s3.358,7.5,7.5,7.5h8c4.142,0,7.5-3.357,7.5-7.5S315.642,312,311.5,312z"/>
	<path d="M228.803,274.196c-2.929-2.928-7.678-2.928-10.606,0c-2.929,2.93-2.929,7.678,0,10.607l8,8
		c1.464,1.464,3.384,2.196,5.303,2.196s3.839-0.732,5.303-2.196c2.929-2.93,2.929-7.678,0-10.607L228.803,274.196z"/>
	<path d="M143.5,231h8c4.142,0,7.5-3.357,7.5-7.5s-3.358-7.5-7.5-7.5h-8c-4.142,0-7.5,3.357-7.5,7.5S139.358,231,143.5,231z"/>
	<path d="M319.5,159.004c1.919,0,3.839-0.732,5.303-2.196c2.929-2.93,2.929-7.678,0-10.607l-0.004-0.004
		c-2.929-2.929-7.676-2.927-10.604,0.002c-2.929,2.93-2.927,7.68,0.002,10.609C315.661,158.271,317.581,159.004,319.5,159.004z"/>
	<path d="M271.504,207.004c1.919,0,3.839-0.732,5.303-2.196c2.929-2.93,2.929-7.678,0-10.607l-0.004-0.004
		c-2.929-2.93-7.676-2.928-10.604,0.002c-2.929,2.93-2.927,7.68,0.002,10.609C267.665,206.271,269.584,207.004,271.504,207.004z"/>
	<path d="M111.504,223.004c1.919,0,3.839-0.732,5.303-2.196c2.929-2.93,2.929-7.678,0-10.607l-0.004-0.004
		c-2.929-2.93-7.676-2.928-10.604,0.002c-2.929,2.93-2.927,7.68,0.002,10.609C107.665,222.271,109.584,223.004,111.504,223.004z"/>
	<path d="M332.803,290.196c-2.929-2.93-7.676-2.928-10.604,0.002c-2.929,2.93-2.927,7.68,0.002,10.609
		c1.464,1.464,3.384,2.196,5.303,2.196s3.839-0.732,5.303-2.196c2.929-2.93,2.929-7.678,0-10.607L332.803,290.196z"/>
	<path d="M252.799,346.192c-2.929-2.929-7.676-2.927-10.604,0.002c-2.929,2.93-2.927,7.68,0.002,10.609
		c1.464,1.464,3.384,2.196,5.303,2.196s3.839-0.732,5.303-2.196c2.929-2.93,2.929-7.678,0-10.607L252.799,346.192z"/>
	<path d="M228.803,354.196c-2.929-2.929-7.676-2.928-10.604,0.002c-2.929,2.93-2.927,7.68,0.002,10.609
		c1.464,1.464,3.384,2.196,5.303,2.196s3.839-0.732,5.303-2.196c2.929-2.93,2.929-7.678,0-10.607L228.803,354.196z"/>
	<path d="M212.799,298.192c-2.929-2.93-7.676-2.928-10.604,0.002c-2.929,2.93-2.927,7.68,0.002,10.609
		c1.464,1.464,3.384,2.196,5.303,2.196s3.839-0.732,5.303-2.196c2.929-2.93,2.929-7.678,0-10.607L212.799,298.192z"/>
	<path d="M236.807,242.196l-0.004-0.004c-2.929-2.929-7.676-2.927-10.604,0.002c-2.929,2.93-2.927,7.68,0.002,10.609
		c1.464,1.464,3.384,2.196,5.303,2.196s3.839-0.732,5.303-2.196C239.736,249.874,239.736,245.126,236.807,242.196z"/>
	<path d="M132.803,154.192c-2.929-2.929-7.676-2.927-10.604,0.002c-2.929,2.93-2.927,7.68,0.002,10.609
		c1.464,1.464,3.384,2.196,5.303,2.196s3.839-0.732,5.303-2.196c2.929-2.93,2.929-7.678,0-10.607L132.803,154.192z"/>
	<path d="M284.799,282.196c-2.929-2.93-7.676-2.928-10.604,0.002c-2.929,2.93-2.927,7.68,0.002,10.609
		c1.464,1.464,3.384,2.196,5.303,2.196s3.839-0.732,5.303-2.196c2.929-2.93,2.929-7.678,0-10.607L284.799,282.196z"/>
	<path d="M423.5,176c-2.866,0-5.685,0.313-8.439,0.913C391.501,97.831,318.133,40,231.5,40S71.499,97.831,47.939,176.913
		c-2.754-0.6-5.573-0.913-8.439-0.913C17.72,176,0,193.72,0,215.5v32C0,269.28,17.72,287,39.5,287c2.865,0,5.684-0.313,8.439-0.914
		C71.498,365.168,144.867,423,231.5,423s160.002-57.832,183.561-136.914c2.755,0.6,5.574,0.914,8.439,0.914
		c21.78,0,39.5-17.72,39.5-39.5v-32C463,193.72,445.28,176,423.5,176z M39.5,272C25.991,272,15,261.01,15,247.5v-32
		c0-13.51,10.991-24.5,24.5-24.5c1.603,0,3.18,0.155,4.725,0.456C41.465,204.375,40,217.769,40,231.5
		c0,13.731,1.465,27.125,4.225,40.045C42.68,271.846,41.102,272,39.5,272z M231.5,408C134.178,408,55,328.822,55,231.5
		S134.178,55,231.5,55S408,134.178,408,231.5S328.822,408,231.5,408z M448,247.5c0,13.51-10.991,24.5-24.5,24.5
		c-1.602,0-3.18-0.154-4.725-0.455c2.76-12.92,4.225-26.313,4.225-40.045c0-13.731-1.465-27.125-4.225-40.044
		c1.544-0.301,3.122-0.456,4.725-0.456c13.509,0,24.5,10.99,24.5,24.5V247.5z"/>
	<path d="M231.5,72C143.551,72,72,143.552,72,231.5S143.551,391,231.5,391S391,319.448,391,231.5S319.449,72,231.5,72z M231.5,376
		C151.822,376,87,311.178,87,231.5S151.822,87,231.5,87S376,151.822,376,231.5S311.178,376,231.5,376z"/>
	<path d="M198.273,215h22.72c4.142,0,7.5-3.357,7.5-7.5s-3.358-7.5-7.5-7.5h-22.72c-9.916,0-17.113-10.382-17.113-24.687
		c0-9.437,7.677-17.113,17.113-17.113h22.72c18.751,0,34.007-15.256,34.007-34.007v-3.787c0-6.224-5.063-11.286-11.287-11.286
		h-51.12c-27.826,0-47.26,21.77-47.26,52.939C145.333,191.251,169.082,215,198.273,215z M240,124.193
		c0,10.48-8.526,19.007-19.007,19.007h-20.9v-19.08H240V124.193z M185.093,124.919v21.123c-3.208,1.45-6.136,3.409-8.681,5.779
		l-10.404-12.595C170.059,132.221,176.348,126.862,185.093,124.919z M160.653,156.295l7.208,8.726
		c-1.097,3.233-1.701,6.693-1.701,10.292c0,2.677,0.183,5.267,0.536,7.757c-4.019-6.02-6.362-13.246-6.362-21.011
		C160.333,160.133,160.443,158.205,160.653,156.295z"/>
	<path d="M304.727,165.12h-22.72c-4.142,0-7.5,3.357-7.5,7.5s3.358,7.5,7.5,7.5h22.72c9.916,0,17.113,10.382,17.113,24.687
		c0,9.437-7.677,17.113-17.113,17.113h-22.72c-18.751,0-34.007,15.256-34.007,34.007v3.786c0,6.224,5.063,11.287,11.287,11.287
		h51.12c27.826,0,47.26-21.77,47.26-52.94C357.667,188.869,333.918,165.12,304.727,165.12z M342.667,218.06
		c0,1.927-0.11,3.855-0.32,5.765l-7.208-8.726c1.097-3.233,1.701-6.693,1.701-10.292c0-2.677-0.183-5.268-0.536-7.757
		C340.323,203.068,342.667,210.295,342.667,218.06z M263,255.927c0-10.48,8.526-19.007,19.007-19.007h20.9V256H263V255.927z
		 M317.907,255.201v-21.123c3.208-1.45,6.136-3.409,8.681-5.779l10.404,12.594C332.94,247.899,326.652,253.258,317.907,255.201z"/>
	<path d="M244.803,308.821c-2.929-2.928-7.678-2.929-10.606,0.001l-16.055,16.056c-0.003,0.003-0.007,0.006-0.01,0.009
		c-7.012,7.013-19.442,4.76-29.557-5.355c-6.672-6.672-6.672-17.529,0-24.201l16.065-16.065c13.259-13.26,13.259-34.834,0-48.094
		l-2.678-2.678c-4.4-4.4-11.561-4.399-15.961,0l-36.147,36.147c-19.676,19.676-18.024,48.812,4.017,70.854
		c10.322,10.321,23.875,15.48,37.434,15.48c13.553,0,27.112-5.161,37.431-15.478c0.001-0.001,0.002-0.002,0.003-0.003
		c0.003-0.003,0.006-0.007,0.009-0.01l16.056-16.057C247.732,316.499,247.732,311.75,244.803,308.821z M152.342,304.729
		c-2.089-7.818-1.431-16.054,3.379-23.612l14.936,14.936c-1.243,3.294-1.928,6.75-2.052,10.225L152.342,304.729z M193.981,241.727
		l0.052,0.053c3.59,3.59,5.567,8.362,5.567,13.439s-1.977,9.85-5.567,13.439l-14.779,14.779l-13.491-13.492L193.981,241.727z
		 M164.476,324.888c-1.363-1.363-2.648-2.803-3.85-4.302l11.267,1.073c1.51,3.063,3.529,5.936,6.075,8.481
		c1.893,1.893,3.854,3.595,5.863,5.105C176.735,333.83,169.966,330.378,164.476,324.888z"/>
</g>
<g>
</g>
<g>
</g>
<g>
</g>
<g>
</g>
<g>
</g>
<g>
</g>
<g>
</g>
<g>
</g>
<g>
</g>
<g>
</g>
<g>
</g>
<g>
</g>
<g>
</g>
<g>
</g>
<g>
</g>
</svg>
