<?xml version="1.0" encoding="iso-8859-1"?>
<!-- Generator: Adobe Illustrator 18.0.0, SVG Export Plug-In . SVG Version: 6.00 Build 0)  -->
<!DOCTYPE svg PUBLIC "-//W3C//DTD SVG 1.1//EN" "http://www.w3.org/Graphics/SVG/1.1/DTD/svg11.dtd">
<svg version="1.1" id="Capa_1" xmlns="http://www.w3.org/2000/svg" xmlns:xlink="http://www.w3.org/1999/xlink" x="0px" y="0px"
	 viewBox="0 0 332.653 332.653" style="enable-background:new 0 0 332.653 332.653;" xml:space="preserve">
<g>
	<g>
		<path style="fill:#FDD44B;" d="M108.884,137.017c0.316-0.712,0.607-1.433,0.966-2.126
			C109.49,135.584,109.2,136.306,108.884,137.017z"/>
		<path style="fill:#FDD44B;" d="M111.074,132.804c0.358-0.597,0.691-1.204,1.083-1.784
			C111.765,131.6,111.432,132.208,111.074,132.804z"/>
		<path style="fill:#FDD44B;" d="M107.181,141.633c0.264-0.892,0.51-1.789,0.839-2.658
			C107.69,139.844,107.445,140.742,107.181,141.633z"/>
		<path style="fill:#FDD44B;" d="M105.852,147.716c0.187-1.512,0.467-2.998,0.828-4.458
			C106.319,144.718,106.039,146.204,105.852,147.716z"/>
		<path style="fill:#FDD44B;" d="M105.091,150.277c0,0.042,0,0.081,0,0.123C105.091,150.357,105.091,150.318,105.091,150.277z"/>
		<path style="fill:#FDD44B;" d="M125.379,118.309c-0.389,0.25-0.732,0.533-1.11,0.791c0.807-0.55,1.586-1.121,2.44-1.635
			c11.336-6.814,25.525-9.583,39.955-7.803c14.428,1.781,27.518,7.919,36.856,17.285c9.825,9.854,14.397,22.076,12.873,34.414
			c-0.856,6.938-3.535,12.072-7.964,15.258c-3.729,2.683-8.136,3.647-13.078,3.648c-5.307,0-11.242-1.114-17.621-2.404
			c-0.048,3.431,0.709,8.451,3.526,15.554c1.966,3.62,10.599,21.016,2.371,33.314c-4.44,6.636-12.448,9.37-23.816,9.978
			c-3.093,0.165-9.03-0.616-9.077-0.623c-15.917-2.029-25.679-7.74-28.993-16.995c-4.991-13.93,7.614-28.704,10.4-31.737
			c4.459-6.204,6.415-10.89,7.204-14.228c-12.558-0.583-23.404-1.397-29.55-8.673c-1.745-2.064-2.702-4.489-3.702-7.252v0.001
			l-30.665,62.47c4.042-2.055,8.527-3.145,13.16-3.145c9.042,0,17.434,4.086,22.99,11.207c4.784,6.132,6.904,13.761,5.95,21.48
			c-0.953,7.72-4.85,14.605-10.983,19.39c-5.166,4.031-11.351,6.162-17.894,6.162c-9.042,0-17.414-4.085-22.971-11.207
			c-2.983-3.823-4.84-8.167-5.655-12.637c0.01,0.055,0.009,0.11,0.019,0.165L37.928,296.03l241.147-51.812
			c0.703-29.48-17.256-71.802-46.974-109.892c-25.032-32.082-55.177-56.872-81.279-67.724L125.379,118.309z M247.773,178.842
			c3.569,0.298,6.433,3.071,6.845,6.627c3.106,26.861-8.7,51.498-31.582,65.905c-1.235,0.777-2.623,1.156-4.002,1.156
			c-2.006,0-3.991-0.801-5.453-2.339l-18.177-19.13c-1.553-1.634-2.29-3.876-2.01-6.112c0.28-2.235,1.548-4.227,3.454-5.427
			c12.161-7.655,18.187-20.233,16.535-34.508c-0.259-2.238,0.5-4.474,2.067-6.093c1.567-1.619,3.772-2.441,6.022-2.263
			L247.773,178.842z"/>
		<path style="fill:#FDD44B;" d="M59.581,246.848c0.006,0.147,0.001,0.293,0.009,0.44C59.582,247.142,59.587,246.995,59.581,246.848
			z"/>
		<path style="fill:#FDD44B;" d="M118.141,123.987c-0.456,0.434-0.872,0.892-1.305,1.34
			C117.269,124.879,117.684,124.421,118.141,123.987z"/>
		<path style="fill:#FDD44B;" d="M113.733,128.912c0.395-0.512,0.77-1.035,1.192-1.533
			C114.501,127.877,114.128,128.4,113.733,128.912z"/>
		<path style="fill:#FDD44B;" d="M121.798,120.859c-0.5,0.386-0.964,0.794-1.442,1.195
			C120.834,121.654,121.298,121.245,121.798,120.859z"/>
		<path style="fill:#FDD44B;" d="M73.157,220.998c-0.045,0.028-0.092,0.053-0.137,0.082
			C73.065,221.051,73.112,221.027,73.157,220.998z"/>
		<path style="fill:#FDD44B;" d="M148.286,65.565c0.514,0.198,1.029,0.404,1.546,0.612C149.315,65.969,148.8,65.762,148.286,65.565z
			"/>
		<path style="fill:#FDD44B;" d="M142.744,63.63c0.348,0.109,0.692,0.21,1.042,0.325C143.436,63.841,143.092,63.738,142.744,63.63z"
			/>
		<path style="fill:#FDD44B;" d="M59.631,243.674c0.018-0.256,0.034-0.512,0.058-0.767
			C59.665,243.163,59.649,243.418,59.631,243.674z"/>
		<path style="fill:#FDD44B;" d="M67.96,225.18c-0.24,0.243-0.468,0.492-0.699,0.741C67.491,225.672,67.72,225.422,67.96,225.18z"/>
		<path style="fill:#FDD44B;" d="M62.716,232.455c0.109-0.217,0.206-0.439,0.322-0.653
			C62.923,232.017,62.826,232.238,62.716,232.455z"/>
		<path style="fill:#FDD44B;" d="M64.919,228.774c0.146-0.205,0.312-0.4,0.463-0.602C65.23,228.375,65.066,228.568,64.919,228.774z"
			/>
		<path style="fill:#FDD44B;" d="M61.218,235.944c0.095-0.271,0.202-0.539,0.305-0.807C61.42,235.406,61.314,235.672,61.218,235.944
			z"/>
	</g>
	<g>
		<path style="fill:#FDD44B;" d="M194.044,42.737c1.638,1.021,3.302,2.099,4.994,3.241
			C197.346,44.837,195.682,43.758,194.044,42.737z"/>
		<path style="fill:#FDD44B;" d="M184.43,37.264c2.964,1.519,6.054,3.268,9.257,5.253C190.485,40.533,187.394,38.782,184.43,37.264z
			"/>
		<path style="fill:#FDD44B;" d="M179.571,34.922c1.383,0.618,2.806,1.303,4.254,2.034
			C182.377,36.226,180.954,35.539,179.571,34.922z"/>
		<path style="fill:#FDD44B;" d="M238.985,80.205c-5.996-6.195-11.915-11.829-17.691-16.899
			C227.069,68.375,232.991,74.011,238.985,80.205z"/>
		<path style="fill:#FDD44B;" d="M175.605,33.282c1.264,0.487,2.554,1.013,3.884,1.605C178.16,34.295,176.869,33.768,175.605,33.282
			z"/>
		<path style="fill:#FDD44B;" d="M209.994,53.946c3.659,2.847,7.404,5.941,11.214,9.284
			C217.398,59.888,213.654,56.793,209.994,53.946z"/>
		<path style="fill:#FDD44B;" d="M160.526,29.918c0.917,0,1.891,0.073,2.89,0.179C162.417,29.991,161.443,29.918,160.526,29.918z"/>
		<path style="fill:#FDD44B;" d="M199.144,46.051c3.46,2.338,7.027,4.926,10.68,7.763C206.171,50.978,202.603,48.387,199.144,46.051
			z"/>
		<path style="fill:#FDD44B;" d="M144.682,48.529c1.774,0.5,3.57,1.081,5.377,1.703C148.251,49.61,146.455,49.029,144.682,48.529z"
			/>
		<path style="fill:#FDD44B;" d="M155.601,52.32c-1.267-0.513-2.525-0.995-3.778-1.451C153.075,51.325,154.335,51.809,155.601,52.32
			z"/>
		<path style="fill:#FDD44B;" d="M312,193.093c-8.462-25.414-25.31-55.032-47.44-83.396c-8.528-10.93-17.121-20.757-25.573-29.49
			c-26.172-23.584-49.599-35.751-63.426-35.751c-3.003,0-5.527,0.571-7.523,1.7l-4.709,9.57c-0.039-0.019-0.077-0.035-0.116-0.053
			c26.894,12.955,55.938,37.615,80.743,69.405c31.042,39.785,49.563,83.045,50.135,115.913l19.08-4.099
			C319.42,230.346,319.029,214.205,312,193.093z"/>
		<path style="fill:#FDD44B;" d="M171.326,31.791c1.179,0.362,2.394,0.778,3.641,1.244C173.72,32.569,172.505,32.153,171.326,31.791
			z"/>
		<path style="fill:#FDD44B;" d="M157.597,53.141c1.358,0.578,2.725,1.195,4.097,1.835
			C160.322,54.336,158.956,53.719,157.597,53.141z"/>
		<path style="fill:#FDD44B;" d="M167.634,30.808c1.009,0.227,2.05,0.501,3.12,0.817C169.684,31.31,168.642,31.035,167.634,30.808z"
			/>
		<path style="fill:#FDD44B;" d="M164.07,30.171c0.999,0.128,2.03,0.298,3.105,0.528C166.1,30.469,165.069,30.299,164.07,30.171z"/>
	</g>
	<g>
		<path style="fill:#CE593F;" d="M88.624,231.561c0.66,0,1.311,0.054,1.95,0.148C89.933,231.621,89.284,231.561,88.624,231.561z"/>
		<path style="fill:#CE593F;" d="M90.751,231.739c0.617,0.098,1.225,0.229,1.82,0.4C91.976,231.967,91.37,231.832,90.751,231.739z"
			/>
		<path style="fill:#CE593F;" d="M91.795,259.333c-0.334,0.078-0.664,0.168-1.004,0.221
			C91.132,259.503,91.461,259.41,91.795,259.333z"/>
		<path style="fill:#CE593F;" d="M99.742,236.981c-1.852-2.374-4.361-4.029-7.169-4.842c-1.68,0.494-3.264,1.295-4.685,2.404
			c-6.121,4.777-7.215,13.643-2.438,19.767c1.843,2.361,4.335,4.008,7.126,4.826c1.692-0.493,3.295-1.27,4.725-2.386
			c2.967-2.314,4.854-5.645,5.315-9.378C103.077,243.638,102.055,239.948,99.742,236.981z"/>
	</g>
	<g>
		<path style="fill:#EF8829;" d="M122.094,155.368c-0.085-0.056-0.182-0.109-0.258-0.167
			C121.913,155.259,122.01,155.312,122.094,155.368z"/>
		<path style="fill:#EF8829;" d="M194.972,139.872c-6.27-4.322-13.965-7.179-22.309-8.21c-11.114-1.37-21.896,0.676-30.366,5.767
			c-7.879,4.735-12.738,11.557-13.681,19.208c-0.022,0.176-0.043,0.37-0.063,0.575c-0.419-0.059-0.825-0.123-1.221-0.19
			c4.081,0.695,9.514,0.943,14.563,1.171c1.784,0.081,5.531,0.269,5.546,0.27c3.297,0.195,6.19,2.554,6.909,5.939
			c1.958,9.241-1.512,20.06-10.314,32.16c-0.197,0.269-0.41,0.526-0.641,0.767c-3.939,4.171-9.058,12.38-7.498,16.703
			c1.204,3.333,7.56,6.013,17.01,7.181c9.436,1.161,16.241,0.106,18.218-2.832c2.564-3.814-0.405-13.021-3.222-18.043
			c-0.157-0.279-0.304-0.586-0.425-0.883c-5.595-13.875-6.329-25.215-2.183-33.701c1.513-3.095,4.871-4.682,8.102-4.091
			c0.03,0.005,3.74,0.74,5.492,1.095c8.428,1.715,17.978,3.655,20.758,1.656c1.166-0.838,1.643-3.427,1.824-4.896
			C202.308,152.753,200.003,145.875,194.972,139.872z"/>
		<path style="fill:#EF8829;" d="M122.887,155.802c-0.142-0.066-0.289-0.129-0.417-0.199
			C122.597,155.673,122.745,155.736,122.887,155.802z"/>
		<path style="fill:#EF8829;" d="M127.245,157.006c-0.366-0.063-0.719-0.13-1.062-0.2
			C126.525,156.877,126.879,156.943,127.245,157.006z"/>
		<path style="fill:#EF8829;" d="M126,156.767c-0.308-0.066-0.607-0.134-0.892-0.207C125.393,156.633,125.693,156.701,126,156.767z"
			/>
		<path style="fill:#EF8829;" d="M123.803,156.17c-0.195-0.068-0.39-0.135-0.568-0.208
			C123.414,156.034,123.609,156.102,123.803,156.17z"/>
		<path style="fill:#EF8829;" d="M124.846,156.489c-0.25-0.067-0.494-0.136-0.725-0.209
			C124.351,156.353,124.597,156.422,124.846,156.489z"/>
	</g>
	<path style="fill:#84BD93;" d="M239.843,198.972l-6.889-0.572c-0.691,13.038-6.247,24.897-15.767,33.762l-5.093-5.36l7.926,8.342
		c13.189-10.318,20.277-25.11,20.057-41.854C240.103,195.213,240.011,197.104,239.843,198.972z"/>
	<path style="fill:#3F2D20;" d="M276.413,100.449c-39.931-51.179-86.502-85.565-115.887-85.565c-7.098,0-13.16,1.921-18.018,5.711
		c-0.895,0.698-1.619,1.59-2.12,2.607L0.773,306.933c-1.272,2.586-0.955,5.671,0.818,7.943c1.442,1.848,3.639,2.894,5.926,2.894
		c0.525,0,1.054-0.055,1.58-0.168l309.165-66.426c1.109-0.239,2.15-0.725,3.045-1.423
		C350.213,227.199,319.752,155.994,276.413,100.449z M137.92,62.27c28.61,6.916,64.902,34.531,94.181,72.056
		c29.718,38.09,47.677,80.412,46.974,109.892L21.116,299.642L137.92,62.27z M313.169,236.892l-19.079,4.099
		c-0.573-32.868-19.093-76.128-50.135-115.913c-30.636-39.263-67.742-67.664-99.273-76.549l8.322-16.911
		c1.997-1.13,4.52-1.7,7.523-1.7c20.766,0,63.169,27.403,104.034,79.778c22.13,28.364,38.977,57.982,47.44,83.396
		C319.029,214.205,319.42,230.346,313.169,236.892z"/>
	<path style="fill:#3F2D20;" d="M88.624,216.527c-6.543,0-12.732,2.131-17.901,6.162c-12.658,9.877-14.921,28.211-5.044,40.869
		c5.556,7.123,13.929,11.207,22.972,11.207c6.542,0,12.73-2.131,17.896-6.161c6.133-4.784,10.035-11.67,10.988-19.39
		c0.953-7.719-1.157-15.347-5.941-21.48C106.039,220.612,97.667,216.527,88.624,216.527z M102.615,247.371
		c-0.46,3.733-2.348,7.064-5.315,9.378c-2.5,1.951-5.491,2.981-8.649,2.981c-4.378,0-8.431-1.976-11.118-5.421
		c-4.778-6.123-3.683-14.99,2.438-19.767c2.501-1.951,5.492-2.982,8.653-2.982c4.377,0,8.429,1.976,11.117,5.421
		C102.055,239.948,103.077,243.638,102.615,247.371z"/>
	<path style="fill:#3F2D20;" d="M177.729,177.863c6.379,1.29,12.314,2.404,17.621,2.404c4.943-0.001,9.349-0.965,13.078-3.648
		c4.428-3.186,7.108-8.32,7.964-15.257c1.524-12.338-3.048-24.56-12.873-34.414c-9.338-9.365-22.427-15.503-36.855-17.285
		c-14.429-1.78-28.618,0.989-39.954,7.803c-11.926,7.169-19.333,17.912-20.857,30.25c-0.856,6.938,0.494,12.569,4.016,16.737
		c6.147,7.276,16.917,8.09,29.475,8.673c-0.789,3.339-2.744,8.024-7.204,14.229c-2.786,3.033-15.391,17.807-10.401,31.737
		c3.315,9.255,13.077,14.966,28.994,16.995c0.047,0.007,5.984,0.788,9.077,0.622c11.368-0.608,19.376-3.342,23.816-9.978
		c8.228-12.299-0.405-29.695-2.371-33.314C178.438,186.313,177.681,181.294,177.729,177.863z M171.125,218.381
		c-1.977,2.937-8.782,3.992-18.218,2.832c-9.45-1.168-15.806-3.848-17.01-7.18c-1.56-4.323,3.559-12.532,7.499-16.703
		c0.23-0.242,0.443-0.498,0.64-0.767c8.802-12.1,12.272-22.919,10.314-32.16c-0.718-3.386-3.612-5.745-6.908-5.94
		c-0.015-0.001-3.762-0.189-5.546-0.27c-8.592-0.387-18.331-0.825-20.543-3.442c-0.926-1.096-0.759-3.723-0.577-5.192
		c0.944-7.65,5.802-14.473,13.681-19.208c8.47-5.091,19.253-7.137,30.366-5.767c11.111,1.372,21.073,5.981,28.05,12.979
		c6.491,6.509,9.545,14.307,8.599,21.957c-0.181,1.469-0.659,4.058-1.824,4.896c-2.78,1.999-12.331,0.059-20.758-1.656
		c-1.752-0.355-5.462-1.09-5.492-1.095c-3.231-0.591-6.588,0.995-8.101,4.09c-4.146,8.486-3.412,19.825,2.183,33.701
		c0.12,0.297,0.268,0.604,0.425,0.883C170.719,205.36,173.689,214.566,171.125,218.381z"/>
	<path style="fill:#3F2D20;" d="M247.773,178.842l-26.299-2.184c-2.25-0.178-4.455,0.644-6.023,2.263
		c-1.567,1.619-2.326,3.854-2.066,6.093c1.651,14.276-4.375,26.853-16.536,34.508c-1.907,1.2-3.174,3.192-3.454,5.428
		c-0.28,2.236,0.457,4.478,2.01,6.112l18.177,19.13c1.462,1.539,3.446,2.339,5.453,2.339c1.378,0,2.767-0.379,4.001-1.156
		c22.882-14.407,34.688-39.044,31.582-65.905C254.205,181.913,251.341,179.14,247.773,178.842z M220.021,235.144l-7.926-8.342
		c9.984-8.935,15.804-21.083,16.514-34.464l11.469,0.952C240.298,210.034,233.209,224.825,220.021,235.144z"/>
</g>
<g>
</g>
<g>
</g>
<g>
</g>
<g>
</g>
<g>
</g>
<g>
</g>
<g>
</g>
<g>
</g>
<g>
</g>
<g>
</g>
<g>
</g>
<g>
</g>
<g>
</g>
<g>
</g>
<g>
</g>
</svg>
